<svg id="Group_111" data-name="Group 111" xmlns="http://www.w3.org/2000/svg" width="95.235" height="73.275" viewBox="0 0 95.235 73.275">
  <path id="Path_68" data-name="Path 68" d="M101.266,236.421c-.269-.031-.211-.085-.358-.073-.291.019-.087-.142-.374-.171-.133-.022-.2-.222-.185-.378.036-.349-.1-.3.056-.58.033-.068.142-.14.168-.244.1-.393.153-.368.437-.712.056-.065.011-.054.107-.307.079-.2.128-.246.232-.529a.466.466,0,0,0-.055-.508c-.052-.1-.173-.158-.177-.376-.005-.385.432-.324.616-.253a2,2,0,0,1,.468.291c.065.04.077.013.193.084.184.121.184.414.111.652-.035.124-.066.117-.121.234s-.068.242-.1.3a1.905,1.905,0,0,0-.216.378c-.141.307-.083.1-.277.383a2.353,2.353,0,0,0-.344.709c.009.136-.055.147-.04.238.036.133-.077.212.067.448.052.084.2.2.145.269-.1.142-.124.172-.354.146m-1.957-.873a1.067,1.067,0,0,1-.6-.3,1.574,1.574,0,0,1-.368-.534,1.067,1.067,0,0,1,.117-.982c.041-.154.226-.173.252-.468a.4.4,0,0,1,.112-.229,1.241,1.241,0,0,0,.148-.393c.014-.2.233-.395.145-.678-.013-.041-.072-.042-.058-.1.058-.329-.167-.346-.062-.545.035-.073.13-.044.185-.051s.117.048.205.091c.111.044.131-.014.232.035.109.069.269-.053.523.095.092.051.238.164.183.328-.073.272.05.207-.058.413-.136.266-.153.126-.237.319s.007.244-.112.469a3.634,3.634,0,0,1-.262.405c-.164.338-.16.223-.253.419a2.929,2.929,0,0,1-.192.325c-.16.3-.009.435.062.735.043.154.062.1.151.223a2.618,2.618,0,0,0,.264.284c.027.028.05.082-.021.147-.113.079-.183.012-.361,0" transform="translate(-87.296 -168.036)" fill="#003878"/>
  <path id="Path_69" data-name="Path 69" d="M108.721,239.651c-.1.059-.171.087-.232.055-.22-.117-.211-.346-.572-.413-.144-.024-.254-.138-.365-.14a.36.36,0,0,1-.232-.089c-.08-.064-.13-.06-.178-.1-.17-.162.011-.189.209-.288a.805.805,0,0,0,.5-.569c.017-.331.321-.534.334-.858s.162-.25.189-.65a2.03,2.03,0,0,1,.085-.28,1.211,1.211,0,0,1,.069-.262c.058-.17.015-.219-.136-.317s-.136-.166-.246-.152-.13-.042-.275-.016-.162-.041-.217-.11-.1-.076-.072-.163.155-.133.263-.18.138,0,.3.06c.463.179.427-.1.884.38a.974.974,0,0,1,.187.185c.063.1-.022.16.085.361s.021.072.088.315-.027.319-.093.486-.217.333-.3.511a4.452,4.452,0,0,1-.266.644c-.092.173-.022.16-.122.354s-.051.173-.017.291.013.236.087.338a.733.733,0,0,1,.179.35.213.213,0,0,1-.141.258m-2.553-1.049a.389.389,0,0,1-.242-.036c-.127-.049-.03-.133-.21-.21s-.3,0-.525.022c-.1.016-.16-.046-.244-.078-.183-.07-.384-.115-.417-.272-.013-.07-.056-.127-.011-.205a.371.371,0,0,1,.438-.169.563.563,0,0,0,.446-.358c.1-.24.035-.274.079-.387.123-.313.235-.231.336-.681.038-.179.169-.119.23-.359.1-.357.192-.433.2-.541a.642.642,0,0,0-.234-.516c-.068-.052-.219-.125-.127-.3s.262-.052.373-.025c.162.038.341-.046.55.14.052.052.105.04.188.12s.048.1.1.233.2.23.228.386c.021.113-.231.513-.324.709a1.775,1.775,0,0,1-.3.428c-.136.141-.209.33-.264.365a.337.337,0,0,0-.121.209c-.014.469-.218.519-.237.921-.016.331.195.2.195.492,0,.056-.039.083-.108.111" transform="translate(-89.347 -169.078)" fill="#003878"/>
  <path id="Path_70" data-name="Path 70" d="M114.022,240.543c-.162.044-.172-.107-.374-.058s-.172-.107-.368-.134c-.409-.054-.4-.253-.746-.265a.255.255,0,0,1-.252-.154c-.035-.064-.015-.13.105-.218s.145-.058.334-.063c.347-.029.454-.378.467-.735,0-.116.111-.209.254-.525.1-.228,0-.329.189-.7a1.094,1.094,0,0,0,.14-.379c.034-.4.176-.425.211-.7.017-.159.046-.252.046-.331-.03-.446.077-.461.036-.56-.023-.079.038-.121-.048-.257a1.523,1.523,0,0,0-.28-.342.168.168,0,0,1-.021-.265c.16-.187.261.048.528.017.091-.011.183.048.295.021a.454.454,0,0,1,.34-.009c.211.08.224.138.348.325.062.105.025.154-.023.307a1.128,1.128,0,0,1-.154.405c-.058.085-.08.313-.14.381a1.038,1.038,0,0,0-.165.615c-.005.123-.107.273-.136.53-.058.5-.234.508-.3.941-.078.515-.311.578-.184.836.1.185-.058.14-.117.332-.052.173.02.147.031.291s.076.188.153.352a.222.222,0,0,1-.168.34" transform="translate(-91.903 -169.197)" fill="#003878"/>
  <path id="Path_71" data-name="Path 71" d="M120.22,239.723a.431.431,0,0,0-.248-.412c-.179-.1-.052-.119-.266-.158-.3-.048-.292.069-.47.145-.092.034-.138.138-.207.208a.609.609,0,0,0-.207.384c-.048.258-.017.256.1.335a1.359,1.359,0,0,0,.266.157c.283.052.263-.044.454,0s.517.034.6-.216a.879.879,0,0,0-.019-.441m.54,2.506c-.1.064-.132.187-.205.239s-.113.1-.385.284-.256.115-.382.133a1.147,1.147,0,0,1-.43.03c-.291-.009-.127-.225-.505-.292a1.2,1.2,0,0,1-.538-.185c-.18-.093-.061,0-.254-.139s-.113-.154-.221-.323-.073-.16-.085-.209c-.057-.2-.045-.117-.148-.315-.112-.262-.032-.383-.009-.669.032-.353-.117-.231-.072-.483.056-.287.169-.277.289-.55.057-.119.149-.151.3-.38.1-.147.124-.072.215-.207a.849.849,0,0,1,.36-.236c.1-.04.215-.138.334-.189a.685.685,0,0,1,.309-.008.6.6,0,0,1,.242-.049,1.06,1.06,0,0,1,.279.1c.238.074.179.092.334.126.337.079.342.127.452.227a3.6,3.6,0,0,1,.366.3c.037.076.036.328.117.415s.013.049.1.213a1.075,1.075,0,0,1-.2.984.3.3,0,0,1-.25.123,2.986,2.986,0,0,1-.328-.156c-.065-.013-.095.018-.18-.023a1.123,1.123,0,0,0-.629-.074,1.331,1.331,0,0,0-.316-.067c-.227-.019-.35-.092-.405-.081a.53.53,0,0,0-.16.127c-.056.049-.13.065-.158.157-.2.595-.1.607-.03.776a1.938,1.938,0,0,0,.073.229c.115.148.07.176.172.205a5.526,5.526,0,0,0,.7.144.768.768,0,0,0,.619-.265c.165-.087.141-.154.228-.234.154-.136.334-.258.4-.244.046,0,.1-.039.14-.009a.231.231,0,0,1,.13.252.549.549,0,0,1-.264.325" transform="translate(-93.629 -170.477)" fill="#003878"/>
  <path id="Path_72" data-name="Path 72" d="M126.571,242.222a.542.542,0,0,0-.382-.256c-.067-.007-.111.042-.15.053a1.668,1.668,0,0,1-.326.1c-.267.034-.187.139-.344.266a1.058,1.058,0,0,0-.093.246c-.026.117-.095.428.148.572a1.226,1.226,0,0,0,.837-.129,1,1,0,0,0,.209-.219.718.718,0,0,0,.074-.2.753.753,0,0,0,.027-.425m1.611,1.2c-.062.174-.088.127-.153.173-.117.108-.07.248-.207.332a1.339,1.339,0,0,1-.339-.011c-.113,0-.064.032-.154.03a.577.577,0,0,1-.273-.072c-.2-.149-.175-.281-.423-.388-.019-.033-.068-.068-.18-.085-.239-.024-.228.18-.733.3a1.873,1.873,0,0,0-.247.058c-.078.03-.225-.015-.333.02a2.052,2.052,0,0,1-.3.044c-.044,0-.167-.136-.291-.193a.579.579,0,0,1-.251-.213.589.589,0,0,1,.138-.844c.073-.052.064-.113.145-.234a.746.746,0,0,1,.3-.228c.154-.111.083-.156.395-.26.054-.016.165.024.215-.032a.721.721,0,0,1,.221-.091c.072-.039.118-.042.341-.011s.215-.04.256-.059c.078-.037.1,0,.336-.266.112-.132.053-.372.054-.462-.015-.084-.062-.147-.108-.288s-.068-.143-.126-.185-.1-.093-.178-.1a.717.717,0,0,0-.5.056c-.127.062-.131.176-.151.3a.922.922,0,0,1-.128.288c-.207.416-.538.392-.58.357a.885.885,0,0,1-.211-.225.7.7,0,0,1-.039-.447.521.521,0,0,1,.088-.427,1.135,1.135,0,0,1,.435-.191.329.329,0,0,0,.169-.1c.342-.1.539-.248.673-.235a4.852,4.852,0,0,0,.512.088c.07-.008.142.112.2.14s.322.032.395.054.221.368.266.439.107.138.1.192a1.476,1.476,0,0,0,.045.305.451.451,0,0,1,.017.278c-.019.187-.046.154-.058.281s.07.119.024.438c-.047.243-.112.207-.146.4s.07.2.055.343c-.017.193-.125.13-.013.442.025.064.022.168.077.219a.245.245,0,0,0,.193.028c.07-.025.137-.228.158-.293a1.314,1.314,0,0,1,.215-.333c.066-.061.138-.024.205-.016.142.027.119.243,0,.428-.071.105-.039.085-.109.26" transform="translate(-95.82 -170.822)" fill="#003878"/>
  <path id="Path_73" data-name="Path 73" d="M133.918,240.874c-.107-.058-.132-.215-.216-.266-.144-.072-.1-.154-.212-.153a1.311,1.311,0,0,0-.354.037.832.832,0,0,1-.238.063.329.329,0,0,0-.24.148c-.073.076-.2.108-.083.346.032.089.363.142.6.318s.169.147.3.191.091.027.27-.005.136.05.277-.087.2-.237.083-.354c-.131-.14-.124-.2-.185-.236m-.939,2.98a.863.863,0,0,0-.293-.032c-.219.011-.15.07-.377.052s-.22-.116-.23-.213a3.321,3.321,0,0,0-.071-.327c-.042-.142.017-.2,0-.292a.386.386,0,0,1,.011-.262.176.176,0,0,1,.178-.131c.112,0,.139.185.168.26a.273.273,0,0,0,.117.147c.068.066.046.089.092.126.183.16.14.266.193.3.138.073.289.159.3.248s-.036.129-.088.129m1.857-.444c-.047.27-.129.242-.368.478s-.311.215-.395.231a.267.267,0,0,1-.3-.047c-.153-.109-.077-.119,0-.209a1.443,1.443,0,0,1,.387-.307.461.461,0,0,0,.257-.325c.021-.061.095-.129.025-.209s-.085-.142-.16-.17c-.281-.085-.368-.285-.585-.312-.55-.057-.569-.2-1-.207a.838.838,0,0,1-.438-.126c-.1-.074-.017-.091-.117-.215-.076-.089-.062-.127-.1-.193a.408.408,0,0,1-.112-.395c.025-.225-.009-.091-.021-.368a1.061,1.061,0,0,1,.148-.547c.108-.25.311-.238.4-.457.044-.113.111-.107.149-.108a2,2,0,0,1,.88.007c.174.042.344.257.584.26.331-.005.469-.33.7-.02.24.354.073.342.061.456-.039.313-.161.324-.169.608-.026.719.365.631.345,1.207a5.671,5.671,0,0,1-.172.969" transform="translate(-98.364 -170.872)" fill="#003878"/>
  <path id="Path_74" data-name="Path 74" d="M141.986,242.533c-.3-.019-.436.144-.876.084-.232-.028-.433-.046-.388-.264.013-.07.134-.132.164-.3a.616.616,0,0,0-.029-.307c-.017-.134.052-.128.033-.261-.005-.029.009-.039.007-.115-.022-.149-.072-.127-.052-.364a2.29,2.29,0,0,0-.081-.684,1.041,1.041,0,0,0-.18-.307c-.081-.148-.095-.4-.144-.487-.031-.064-.1-.054-.166-.105a.666.666,0,0,0-.288-.05c-.066.008-.017-.013-.188.07s-.163.031-.251.157c-.222.311-.076.207-.317.451a.482.482,0,0,0-.167.326c-.042.24.092.434.1.584a3.745,3.745,0,0,0,.095.62c.048.229.123.173.171.362a.558.558,0,0,0,.2.3c.04.024.068.119.2.281a.287.287,0,0,1-.08.412c-.093.088-.093.037-.354.073s-.239-.081-.335-.068c-.157.021-.2.285-.776.153-.078-.019-.077-.162-.06-.2s.1-.121.107-.213c0-.248.091-.224.045-.444a1.782,1.782,0,0,1,0-.348,3.029,3.029,0,0,0-.067-.421,3.965,3.965,0,0,0-.034-.668c-.045-.273-.048-.393-.056-.454,0-.044,0-.067,0-.091-.009-.058-.024-.056-.035-.131a.97.97,0,0,0-.065-.413c-.095-.245,0-.227-.076-.648-.035-.2-.031-.269-.138-.381-.205-.22-.069-.277-.373-.34a1.689,1.689,0,0,1-.26-.056c-.083-.057-.163-.083-.18-.2-.024-.177.288-.329.4-.381a1.617,1.617,0,0,1,.312-.044c.18-.024.276-.144.516-.17a.315.315,0,0,1,.317.107c.056.06.214.159.227.324s.052.318.085.548c.038.213-.064.243-.03.374.132.456.226.588.364.432.066-.077.274-.2.343-.273.3-.208.3-.216.46-.231.068-.009.168-.053.2-.06a2.016,2.016,0,0,0,.405.021,1.551,1.551,0,0,1,.358.062c.153.056.164.191.217.244s.242.207.258.38c.007.1.08.246.092.388a5.579,5.579,0,0,0,.03.644c.035.238.089.087.158.583.02.195.1.334.123.489a3.785,3.785,0,0,0,.032.4c.036.146.264.191.3.358.034.132-.061.266-.29.253" transform="translate(-100.07 -170.084)" fill="#003878"/>
  <path id="Path_75" data-name="Path 75" d="M152.674,242.173c-.18.105-.117.054-.368.135-.319.111-.342-.031-.513-.07a.579.579,0,0,1-.221-.2.746.746,0,0,1-.187-.356.862.862,0,0,1,.177-.521.409.409,0,0,1,.315-.124c.054,0,.389.007.5.159.13.154.158.168.27.125a.234.234,0,0,0,.156-.107.347.347,0,0,0,.136-.336.105.105,0,0,1,.087-.121.762.762,0,0,1,.108-.052c.021-.006.069.111.061.185-.03.246-.05,1.008-.523,1.278m1.129-5.479c-.292.291-.226.23-.254.436,0,.11-.1.166-.1.3.008.187-.105.231-.095.456.005.117.14.4.195.623s-.021.171-.005.417c0,.3-.1.192-.105.476,0,.064-.12.187-.189.3-.127.213.154.539.016.725a.264.264,0,0,1-.134.05c-.066.015-.149-.117-.207-.2s-.052-.18-.128-.3-.061-.012-.23-.194c-.231-.248-.525-.208-.87-.876-.127-.242-.131-.154-.247-.322-.327-.468-.453-.246-.7-.676-.067-.113-.166-.1-.308-.192-.083-.083-.147-.04-.333-.222a.235.235,0,0,1,.08-.388c.389-.142.315-.22.723-.376.084-.035.309-.022.395-.049s.25-.136.408-.061c.428.294-.229.365.234,1.129.175.29.175.195.247.345s.173.384.261.411c.195.04.185.153.287.152.181,0,.234-.083.22-.173-.043-.182.13-.159.093-.463a.175.175,0,0,1,.069-.132c.047-.143-.027-.2-.105-.564s-.278-.274-.421-.51c-.029-.046-.167-.056-.181-.17a.191.191,0,0,1,.048-.19c.242-.274.168-.313.472-.4.666-.184.495-.082.695-.1s.258.16.288.325a.405.405,0,0,1-.112.406" transform="translate(-104.323 -169.58)" fill="#003878"/>
  <path id="Path_76" data-name="Path 76" d="M160.142,235.084c-.079-.162-.112-.246-.26-.292s-.1-.144-.236-.189c-.285-.105-.393-.015-.52-.047a.164.164,0,0,0-.126.009.385.385,0,0,0-.14.1c-.035.036-.044.113-.1.176a.886.886,0,0,0-.121.208c-.128.187,0,.217-.183.538a.293.293,0,0,0,.032.325c.042.087.042.209.13.415a5.94,5.94,0,0,1,.188.66.5.5,0,0,0,.238.293c.123.063.158.195.252.247a.894.894,0,0,1,.347.145c.2.139.177.1.321.012s.134-.149.28-.15c.175,0,.143-.047.209-.082.116-.054.093-.117.14-.2a.5.5,0,0,0,.1-.28,1.252,1.252,0,0,0-.077-.727,2.564,2.564,0,0,1-.2-.524,3.457,3.457,0,0,0-.274-.633m1.5,1.152c.015.1-.057.182-.069.316a.3.3,0,0,1-.076.191,1.235,1.235,0,0,1-.117.423,3.072,3.072,0,0,0-.152.268.48.48,0,0,1-.291.227c-.474.128-.2.207-.57.376a2.383,2.383,0,0,1-.333.058.251.251,0,0,1-.256-.077c-.054-.035-.023-.039-.161.024a.612.612,0,0,1-.7-.073c-.092-.069-.1.008-.184-.073s-.03,0-.264-.138a.814.814,0,0,1-.378-.366c-.144-.241-.191-.072-.3-.488-.046-.2-.265-.305-.277-.7a.615.615,0,0,1,.089-.388,2.265,2.265,0,0,0,.14-.506c-.017-.227,0-.2.1-.385s.158-.15.242-.247a.51.51,0,0,1,.22-.2c.107-.058.17-.2.422-.3.287-.112.2.058.495-.057.2-.076.244-.2.47-.119a2.714,2.714,0,0,1,.711.244c.325.187.334.087.456.152a1.242,1.242,0,0,1,.4.489c.1.2.152.181.189.295s.076.068.121.185a2.872,2.872,0,0,1,.077.872" transform="translate(-106.785 -168.93)" fill="#003878"/>
  <path id="Path_77" data-name="Path 77" d="M168.859,234.108c-.2.181-.2.1-.289.219-.18.232-.168-.027-.379.169-.1.084-.3,0-.407-.113-.242-.256-.291-.121-.4-.423-.03-.068-.012-.2-.073-.285-.231-.333-.176-.358-.251-.8-.011-.085-.034-.042-.161-.281-.1-.187-.1-.258-.248-.521a.464.464,0,0,0-.42-.295c-.108-.027-.234.027-.4-.115-.293-.25.04-.538.215-.627a1.987,1.987,0,0,1,.529-.158c.071-.023.06-.05.191-.091.213-.056.434.136.564.348.072.108.046.127.1.244s.138.211.165.272a1.783,1.783,0,0,0,.144.41c.138.308.021.13.105.459a2.348,2.348,0,0,0,.309.725c.108.084.076.139.152.188.125.06.11.2.384.243.1.017.284-.021.3.069.04.17.048.207-.124.362M166.91,235a1.089,1.089,0,0,1-.621.246,1.59,1.59,0,0,1-.646-.076c-.456-.108-.607-.6-.665-.736-.091-.134.016-.284-.189-.5a.422.422,0,0,1-.1-.235,1.226,1.226,0,0,0-.2-.37c-.144-.144-.146-.436-.417-.556-.04-.016-.079.024-.117-.024-.209-.261-.37-.1-.452-.314-.033-.075.052-.127.083-.172s.115-.056.2-.093c.108-.054.076-.107.181-.15.123-.036.136-.236.415-.331.1-.034.281-.069.369.081.158.234.189.1.272.315.111.279-.005.2.085.387s.188.156.281.395a3.875,3.875,0,0,1,.134.464c.147.344.064.264.15.465a3.14,3.14,0,0,1,.119.355c.119.316.321.295.6.44.143.068.113.017.267.034a2.581,2.581,0,0,0,.388-.009c.041,0,.1.016.1.113-.015.137-.109.144-.235.27" transform="translate(-108.753 -167.879)" fill="#003878"/>
  <path id="Path_78" data-name="Path 78" d="M173.9,228.77a.623.623,0,0,1-.031.354c-.074.168-.176.162-.415.173-.152.007-.367-.115-.451-.1s-.149-.06-.2-.056a.514.514,0,0,0-.279.132c-.1.138-.1.064-.13.174a.974.974,0,0,0,.072.54c.069.142.193.34.249.471.22.526.013.442.151.652.049.117.083.234.149.393.088.207.064.283.425.349.126.03.31,0,.362.126.038.089-.051.15-.112.217-.08.081-.076.056-.248.128a3.472,3.472,0,0,1-.487.242c-.221.095-.316.061-.431.117s-.087.068-.2.108c-.1.024-.176.088-.254-.08-.093-.222.049-.33.021-.392-.05-.141-.008,0,.025-.448.012-.185.067-.192.051-.266-.047-.288-.276-.209-.256-.548a.823.823,0,0,0-.123-.445c-.06-.13-.247-.531-.3-.654a.872.872,0,0,0-.4-.359c-.144-.07-.315-.015-.357-.152s0-.148.132-.307c.029-.029.089,0,.151-.03s.145-.1.187-.118c.252-.04.085-.068.352-.172.111-.047.551.014.65-.028s.409-.478.694-.6c.195-.081.152.034.368.024.1,0,.192.05.314.007.093-.03.111-.005.181.046s.1.383.139.5" transform="translate(-111.13 -167.018)" fill="#003878"/>
  <path id="Path_79" data-name="Path 79" d="M185.853,227.031c-.3.036-.4.221-.846.245-.234.015-.432.034-.428-.189,0-.07.107-.154.1-.328a.632.632,0,0,0-.084-.295c-.043-.128.025-.135-.017-.262a1.154,1.154,0,0,0-.015-.115c-.048-.14-.093-.111-.117-.347a2.339,2.339,0,0,0-.207-.657c-.1-.173-.143-.165-.235-.269-.107-.13-.168-.378-.232-.452-.042-.056-.106-.035-.183-.072a.666.666,0,0,0-.292,0c-.065.021-.021-.008-.172.105s-.154.06-.217.2c-.161.347-.038.219-.228.5a.473.473,0,0,0-.1.35c0,.243.17.408.2.555a3.623,3.623,0,0,0,.209.594c.088.215.152.146.236.324a.569.569,0,0,0,.254.254c.045.015.089.1.248.24a.285.285,0,0,1,0,.419c-.076.1-.085.052-.334.137s-.25-.036-.344-.005c-.15.051-.146.319-.734.295-.081,0-.1-.148-.095-.189s.08-.138.065-.229c-.044-.244.048-.236-.039-.444a1.841,1.841,0,0,1-.061-.342,3.025,3.025,0,0,0-.144-.4,3.75,3.75,0,0,0-.157-.65c-.095-.259-.12-.377-.138-.435s-.009-.068-.015-.089c-.019-.057-.034-.053-.058-.123a.965.965,0,0,0-.141-.395c-.139-.222-.044-.222-.2-.623-.071-.188-.08-.257-.2-.348-.243-.179-.12-.261-.432-.266a1.428,1.428,0,0,1-.265-.007c-.092-.04-.176-.05-.213-.165-.058-.169.221-.374.324-.448a1.5,1.5,0,0,1,.3-.1c.17-.056.245-.192.474-.26a.319.319,0,0,1,.334.046c.063.049.236.117.282.276s.113.3.185.523c.077.2-.017.25.041.373.215.426.331.537.438.358.049-.087.233-.25.284-.332.254-.257.258-.268.411-.311.064-.021.154-.084.189-.095a2.1,2.1,0,0,0,.4-.056,1.525,1.525,0,0,1,.363,0c.16.026.2.155.258.2s.276.159.324.324c.027.1.125.227.162.364a5.268,5.268,0,0,0,.15.629c.077.228.1.069.263.544.056.188.16.309.21.46a3.906,3.906,0,0,0,.109.389c.062.138.292.139.362.3.057.123-.011.272-.239.3" transform="translate(-114.253 -165.229)" fill="#003878"/>
  <path id="Path_80" data-name="Path 80" d="M191.553,222.949a.431.431,0,0,0-.407-.261c-.2-.012-.1-.083-.309-.024-.295.089-.23.189-.357.337-.066.07-.062.185-.093.277a.621.621,0,0,0-.013.436c.07.252.1.237.236.257a1.287,1.287,0,0,0,.308.024c.276-.077.217-.156.407-.2s.477-.2.444-.457a.9.9,0,0,0-.214-.387m1.6,2.009c-.06.1-.036.224-.079.305s-.058.138-.217.425-.179.215-.285.287a1.2,1.2,0,0,1-.372.216c-.265.12-.216-.146-.585-.04a1.179,1.179,0,0,1-.564.07c-.2,0-.054.03-.289-.012s-.169-.088-.343-.192-.137-.112-.169-.15c-.142-.159-.092-.086-.272-.219-.217-.184-.2-.328-.305-.595-.13-.329-.209-.156-.28-.4-.079-.28.027-.321.015-.621,0-.131.065-.2.1-.472.024-.176.077-.12.1-.279a.824.824,0,0,1,.216-.37c.073-.08.132-.217.215-.317a.728.728,0,0,1,.273-.146c.047-.034.115-.128.2-.148a1.008,1.008,0,0,1,.295-.035c.244-.039.2,0,.355-.035a.675.675,0,0,1,.5.005,3.532,3.532,0,0,1,.46.108c.069.052.18.28.292.321s.033.038.184.148a1.074,1.074,0,0,1,.26.969.288.288,0,0,1-.17.219,2.789,2.789,0,0,1-.362.005c-.066.017-.078.06-.171.06-.372,0-.481.181-.6.209a1.328,1.328,0,0,0-.313.079c-.211.084-.354.074-.4.108a.5.5,0,0,0-.085.183c-.03.068-.088.115-.072.212.087.617.18.588.318.707.07.061.1.137.169.175.166.081.139.127.243.109a5.771,5.771,0,0,0,.692-.181c.436-.27.372-.4.437-.511.109-.15.058-.2.1-.309.076-.189.185-.377.25-.395.042-.017.073-.079.122-.069a.227.227,0,0,1,.228.168.547.547,0,0,1-.091.408" transform="translate(-117.261 -165.053)" fill="#003878"/>
  <path id="Path_81" data-name="Path 81" d="M198.383,223.216a.549.549,0,0,0-.436-.156c-.066.011-.1.069-.131.089a1.624,1.624,0,0,1-.293.173c-.252.1-.148.181-.266.342a1.006,1.006,0,0,0-.028.26c0,.122.012.438.284.519a1.238,1.238,0,0,0,.778-.33,1.1,1.1,0,0,0,.15-.264.7.7,0,0,0,.021-.215.751.751,0,0,0-.079-.419m1.858.765c-.019.184-.056.145-.105.2-.087.136-.007.26-.119.374a1.481,1.481,0,0,1-.331.073c-.111.023-.054.044-.142.066a.541.541,0,0,1-.283,0c-.234-.091-.24-.228-.5-.27a.249.249,0,0,0-.2-.04c-.238.036-.177.232-.637.466a1.777,1.777,0,0,0-.225.117c-.068.049-.222.041-.318.1a1.879,1.879,0,0,1-.28.117c-.044.007-.2-.09-.33-.116a.583.583,0,0,1-.3-.144.933.933,0,0,1-.213-.354.9.9,0,0,1,.138-.5c.058-.069.034-.127.081-.262a.773.773,0,0,1,.236-.293c.122-.147.042-.173.321-.35.048-.032.165-.019.2-.084a.671.671,0,0,1,.192-.142c.059-.055.1-.068.328-.095s.2-.092.233-.119c.067-.056.095-.029.259-.342.075-.156-.042-.373-.062-.46a2.8,2.8,0,0,0-.176-.253c-.079-.117-.1-.121-.168-.15a.378.378,0,0,0-.2-.053.7.7,0,0,0-.474.177c-.107.092-.084.2-.072.328a.941.941,0,0,1-.051.311c-.1.453-.424.51-.474.489a.909.909,0,0,1-.261-.166.7.7,0,0,1-.147-.423.512.512,0,0,1-.02-.435,1.1,1.1,0,0,1,.372-.292.337.337,0,0,0,.14-.142c.307-.182.46-.372.595-.392a5,5,0,0,0,.519-.04c.065-.026.162.073.225.087.059.03.32-.049.4-.045s.3.3.366.361.139.108.147.16a1.464,1.464,0,0,0,.119.285.457.457,0,0,1,.087.267c.027.185-.007.16.012.285s.1.1.133.419c.015.248-.056.228-.042.423s.118.18.14.32c.03.192-.089.157.1.432.038.056.06.157.127.193a.238.238,0,0,0,.195-.023c.064-.04.076-.253.08-.322a1.361,1.361,0,0,1,.126-.374c.05-.075.13-.058.195-.066.145-.008.177.207.109.415-.042.119-.016.092-.04.278" transform="translate(-119.477 -164.624)" fill="#003878"/>
  <path id="Path_82" data-name="Path 82" d="M206.129,220.958a.606.606,0,0,1-.149.321c-.128.136-.221.095-.451.025-.145-.045-.305-.232-.389-.25s-.119-.107-.164-.119a.521.521,0,0,0-.308.031c-.138.1-.112.028-.181.122a.958.958,0,0,0-.116.531c.016.156.064.387.073.528.03.568-.137.419-.078.662.007.129,0,.249.007.42.011.225-.038.287.283.473.108.069.291.1.3.24,0,.1-.1.124-.181.166-.1.051-.089.027-.276.038a3.71,3.71,0,0,1-.54.065c-.24.012-.319-.052-.446-.038s-.1.036-.224.036c-.1-.011-.195.024-.211-.161-.013-.241.157-.295.153-.361,0-.15-.008-.007.176-.413.073-.169.127-.157.136-.232.054-.287-.188-.29-.054-.6a.825.825,0,0,0,.036-.458c-.015-.144-.053-.583-.061-.718a.873.873,0,0,0-.258-.473c-.111-.115-.292-.12-.284-.262s.052-.139.227-.244c.038-.018.085.025.153.023s.17-.047.216-.048c.251.046.1-.037.388-.044.121-.007.516.2.621.192s.549-.313.857-.328c.209-.011.132.083.34.146.1.034.162.112.291.114.1,0,.108.031.156.1s-.039.391-.04.519" transform="translate(-121.721 -164.358)" fill="#003878"/>
  <path id="Path_83" data-name="Path 83" d="M211.384,223.11a.684.684,0,0,1-.674.552c-.215.016-.224-.081-.519.017-.27.093-.338,0-.509-.057-.367-.135-.172-.212-.4-.384-.079-.056-.055-.151-.084-.213s-.108-.1-.091-.208a3.526,3.526,0,0,0-.023-.38c.028-.387-.1-.381-.079-.491a3.442,3.442,0,0,1,.2-.948,1.722,1.722,0,0,0,.083-.442c.013-.072.036-.035-.055-.146-.157-.227.027-.26-.2-.385-.04-.025-.06-.087-.148-.115s-.08-.05-.04-.13.112-.066.185-.166a1.211,1.211,0,0,1,.191-.241c.176-.166.334-.291.347-.469a1.652,1.652,0,0,1,.026-.348.969.969,0,0,1,.278-.325.3.3,0,0,1,.244-.051c.1.007.128.047.184.185a.518.518,0,0,0,.013.142c.089.26.027.2.009.321s-.057.108-.054.183a.285.285,0,0,0,.05.226c.158.205.242.069.446.2.093.073.111.068.3.109s.221-.008.323.073.242.181.224.313a.32.32,0,0,1-.374.273c-.172,0-.117.029-.226.036-.256.022-.208.04-.356.045s-.2-.073-.254-.009a.982.982,0,0,0-.327.515,6.82,6.82,0,0,0-.066,1.016c.12.38-.07.51-.03.64a.8.8,0,0,1,.053.4c.115.238.193.281.307.3a.557.557,0,0,0,.634-.331.958.958,0,0,1,.081-.315c.056-.092.036-.14.095-.291.07-.168.222-.2.291-.146s.04.236.086.512-.015.2-.021.289-.054.072-.116.24" transform="translate(-123.66 -163.734)" fill="#003878"/>
  <path id="Path_84" data-name="Path 84" d="M149.906,164.952a1.162,1.162,0,0,0,.645-.324,15.474,15.474,0,0,0,1.58-2.817,9.284,9.284,0,0,1-1.382.756,39.068,39.068,0,0,1-6.062,1.843c1.506,1.1,4.136.78,5.22.542m-10.465,8.637a9.932,9.932,0,0,0,3.311-.4,44.013,44.013,0,0,0,4.9-4.717,15.938,15.938,0,0,0,1.937-2.264c-.4.154-.5.156-.957.307a11.409,11.409,0,0,1-3.295.507c-2.272.253-2.16.919-3.728,2.367a19.973,19.973,0,0,1-2.266,1.97,16.618,16.618,0,0,1-2.459,1.433,5.626,5.626,0,0,0,2.555.8m2.851-15.245a1.375,1.375,0,0,0-.873,1.294c.036.042.08.017.118.016a1.494,1.494,0,0,0,.755-1.31m-7.672,5.223a.856.856,0,0,1-.183-.217,9.607,9.607,0,0,1,4.018-1.417.8.8,0,0,0-.136-.245,9.836,9.836,0,0,0-4.147.956s-.1-.2-.111-.25a9.313,9.313,0,0,1,4.068-.994,1.33,1.33,0,0,0-.116-.239,11.9,11.9,0,0,0-3.643.332c-.308.119-.462.161-.689.269l-.107-.246c.116-.056.513-.243.56-.251a2.335,2.335,0,0,0-.253-.179,3.089,3.089,0,0,0-4.281.192,3.565,3.565,0,0,0-.785,2.934,13.116,13.116,0,0,0,1.172,3.794,16.521,16.521,0,0,0,1.119,2.44s4.791-2.221,7.085-4.455a3.288,3.288,0,0,0,.477-3.736,9.727,9.727,0,0,0-4.049,1.313m5.144-3.439a1.805,1.805,0,0,0-1.216.528,1.54,1.54,0,0,0,1.8-.415,1.732,1.732,0,0,0-.582-.113M128.6,179.288a4.547,4.547,0,0,0,0,2.3l.046.115a38.477,38.477,0,0,0,5.346-2.418,35.006,35.006,0,0,0,4.031-2.429c1.064-.652,2.05-1.419,3.094-2.094.04-.019.105-.072.069-.127-.064.012-.107-.046-.17-.007-1.549.348-3.058.568-4.6.8-.333-.063-.637-.26-.974-.319a8.094,8.094,0,0,0-3.7-.212c-1.185,1.254-2.686,2.658-3.138,4.391m-8.277-12.264a5.64,5.64,0,0,1-.233,1.8c.66.97,1.374,1.9,1.974,2.907A19.056,19.056,0,0,1,124,175.465c.627,1.7,1.144,6.2.108,7.955a14.333,14.333,0,0,0,3.159-.98,1.043,1.043,0,0,0,.247-.131,11.462,11.462,0,0,1-.776-2.639c.334-.711.606-1.437.873-2.157a13.812,13.812,0,0,0,.622-2.4,8.674,8.674,0,0,0,.288-2.875c-.457-2.355-1.2-4.544-1.482-6.829a7.725,7.725,0,0,1,.087-2.6,5.049,5.049,0,0,1,.945-1.919,4.63,4.63,0,0,1,3.818-1.451,3.1,3.1,0,0,1,2.426,1.135c.135.2.25.249.307.5a14.275,14.275,0,0,1,3.119-.2c-.366-.623-.7-1.121-1.069-1.738-.1-.187-.2-.332-.3-.5.449.1.864.262,1.307.38l.564.166c.631-.345,1.685-1.045,2.289-1.454a6.48,6.48,0,0,0,.934-1.946c.162.284.311.586.488.862.028.066.091.107.111.185.327.56.678,1.1,1.056,1.633.16-.134.358-.288.535-.411a11.64,11.64,0,0,1,1.454-.846,18.65,18.65,0,0,1,2.612-.856.8.8,0,0,1,.091.28,9.309,9.309,0,0,0-4.5,2.054c.008.007.119.2.128.209a12.346,12.346,0,0,1,4.544-1.462.356.356,0,0,1,.018.295,10.593,10.593,0,0,0-1.562.295,10.322,10.322,0,0,0-2.885,1.049.68.68,0,0,0,.163.242,10.632,10.632,0,0,1,4.34-.8.725.725,0,0,1,0,.253l-.35.026a9.95,9.95,0,0,0-3.031.449,2.916,2.916,0,0,0-.858.354,10.779,10.779,0,0,0-1,1.818c-.02.087-.107.183-.017.253a22.643,22.643,0,0,0,3.612.224,20.562,20.562,0,0,0,6.071-1.141,18.682,18.682,0,0,0,1.876-7.363c-.015,0-.016-.057-.027-.061a5.847,5.847,0,0,0-2.28-.732c-2.094-.115-4.206.469-6.309.476a14.957,14.957,0,0,1-3.86-.074,7.231,7.231,0,0,1-3-1.35c-.166.015-6.136,4.071-11.115,5.459-.077.029-1.957,2.906-2.857,4.253-1.04,1.613-4.681,5.284-4.592,5.675m-4.56-3.765c.066.122.146.25.263.441.938,1.273,1.637,2.177,2.765,3.46a9.506,9.506,0,0,1,.96-1.711c.515-.825,1.134-1.725,1.582-2.549.4-.748.723-1.349,1.1-2.2.238-.56.488-1.064.719-1.682a9.636,9.636,0,0,0,.345-1.1,11.857,11.857,0,0,1-1.565-.283,1.828,1.828,0,0,1-.264-.072,76.383,76.383,0,0,1-5.906,5.7m30.33-24.64a3.711,3.711,0,0,0,.528-.8l-.174-.105a12.049,12.049,0,0,0-1.87-.511,12.287,12.287,0,0,0-4.49.129,11.45,11.45,0,0,0-7.754,5.544c-.2.365-.358.76-.516,1.106a17.921,17.921,0,0,0-1.4-1.937,7.163,7.163,0,0,0-1.439-1.394,12.723,12.723,0,0,0-2.629-1.574,14.492,14.492,0,0,0-3.086-.857,13.525,13.525,0,0,0-7.1,1.019c-3.616,1.736-6.146,4.217-6.9,9.161-.5,6.044,4.924,12.938,5.679,13.928,0,0,1.165-1.472,1.7-2.214.219-.309,1.709-2.536,2.561-3.944.14-.023.265-.349.465-.8a1.683,1.683,0,0,1,.134-.45,5.331,5.331,0,0,0-1.395-2.659c-.264-.277-.565-.615-1-.571a14.054,14.054,0,0,1-3.4,1.264.742.742,0,0,1-.673-.2c.394-.307.769-.531,1.139-.815a4.227,4.227,0,0,0,1.094-1.027c.051-.123.039-.163.011-.175-.588.228-1.214.4-1.8.631a2.87,2.87,0,0,1-1.138.191,2.044,2.044,0,0,1-1.029-.968c-.015-.1.042-.184.244-.381.648-.578,1.323-1.121,1.96-1.726.3-.274.273-.725.537-1.031a5.658,5.658,0,0,1,1.8-1.683,4.561,4.561,0,0,1,1-.321,10.192,10.192,0,0,1,.523-1.068,5.519,5.519,0,0,1,.8-1.035A3,3,0,0,1,120,142.307a4.349,4.349,0,0,1,1.29.1c.2.293-.038.472-.16.76a3.526,3.526,0,0,1-1.722,1.422,1.843,1.843,0,0,0-1.144,1c.1.049.584.342.75.448a9.441,9.441,0,0,0,1.038-.492c1.161-.689,1.173-.949,2.718-1.085.23,0,1.09-.1,1.29.062.232.141.06.581-.009.753a2.438,2.438,0,0,1-1.353,1.143,6.845,6.845,0,0,1-2.053.3.974.974,0,0,0-.564.205c.74.75,1.1,1.437,2.4,1.762a7.3,7.3,0,0,0,2.191.164,12.655,12.655,0,0,0,2.7-.787c2.472-.884,5.581-2.462,8.112-3.537a21.24,21.24,0,0,1,2.976-1.248c3.726-1.425,5.6-2.093,7.633-4.657m-29.8,9.792c.246-.149.389-.469.173-.658-.249-.217-.692-.045-.881.18s-.187.513.068.621a.82.82,0,0,0,.64-.143m33.664-2.311a17.6,17.6,0,0,1,4.283,1.186,10.786,10.786,0,0,0-6.447-9.081,4.39,4.39,0,0,1-1.59,3.827,15.146,15.146,0,0,1-3.909,2.071c-.673.2-.878.28-1.178.336l1.457.51c1.307.485,2.022,1.361,3.976,1.6a8.065,8.065,0,0,0,3.409-.451m4.467,2.93a22.63,22.63,0,0,0-2.917-.772,9.219,9.219,0,0,0-2.367.492,14.787,14.787,0,0,1-4.186.553c-.07.117.054.164.164.2,1.465.535,5.936.9,6.606,1.054a19.254,19.254,0,0,0,2.826,1.019,10.194,10.194,0,0,0-.127-2.549" transform="translate(-90.903 -137.049)" fill="#003878"/>
  <path id="Path_85" data-name="Path 85" d="M175.627,201.838a4.965,4.965,0,0,0-1.63-2.059l-4.655-3.464a3.448,3.448,0,0,1-1.039-1.433l-.827-1.943a1.947,1.947,0,0,1-.192-.746c.007-.3.116-.513.548-.7a1.067,1.067,0,0,1,.422-.1c.381,0,.638.311.872.854l1.02,2.4,2-.842-1.065-2.5a2.612,2.612,0,0,0-2.4-1.914,4.126,4.126,0,0,0-1.582.37,2.73,2.73,0,0,0-1.96,2.523,3.952,3.952,0,0,0,.353,1.527l.946,2.226a4.777,4.777,0,0,0,1.774,2.117l4.33,3.271a3.4,3.4,0,0,1,1.186,1.492l1.1,2.583a2.077,2.077,0,0,1,.192.8.8.8,0,0,1-.545.8,1.157,1.157,0,0,1-.433.1c-.406,0-.744-.3-1.019-.936l-1.1-2.58-2,.842,1.141,2.682a2.733,2.733,0,0,0,2.5,2.009h.012a4.245,4.245,0,0,0,1.631-.381,2.841,2.841,0,0,0,1.978-2.629,3.7,3.7,0,0,0-.32-1.443Z" transform="translate(-109.292 -154.263)" fill="#b0b91d"/>
  <path id="Path_86" data-name="Path 86" d="M92.179,196.258l-10.258,8.636,2.288,2.691,1.033-.87-1.292-1.523,9.346-7.87-.994-1.168Z" transform="translate(-81.921 -156.49)" fill="#b0b91d"/>
  <path id="Path_87" data-name="Path 87" d="M98.3,204.113l-5.181,7.244c-.284.4-.544.627-.795.621a.787.787,0,0,1-.453-.176.645.645,0,0,1-.343-.529,1.523,1.523,0,0,1,.356-.789l5.181-7.246c.283-.4.544-.627.795-.62a.782.782,0,0,1,.453.175c.266.192.34.353.342.529a1.5,1.5,0,0,1-.355.791m.8-2.417a2.51,2.51,0,0,0-1.438-.538,2.317,2.317,0,0,0-1.826,1.163l-5.222,7.3a2.736,2.736,0,0,0-.6,1.55,2.132,2.132,0,0,0,1.074,1.725,2.519,2.519,0,0,0,1.439.537,2.32,2.32,0,0,0,1.826-1.164l5.222-7.3a2.751,2.751,0,0,0,.6-1.55A2.134,2.134,0,0,0,99.1,201.7" transform="translate(-84.584 -158.136)" fill="#b0b91d"/>
  <path id="Path_88" data-name="Path 88" d="M108.688,206.233l-.065.149-4.379,10.154c-.273.619-.5.791-.752.789a.943.943,0,0,1-.373-.092c-.327-.15-.447-.285-.455-.578a1.88,1.88,0,0,1,.188-.713l4.444-10.3-1.414-.6-4.6,10.655a2.271,2.271,0,0,0-.2.9,2.13,2.13,0,0,0,1.484,1.871,3.067,3.067,0,0,0,1.182.267h.02a1.841,1.841,0,0,0,1.734-1.24l4.6-10.656Z" transform="translate(-88.224 -159.412)" fill="#b0b91d"/>
  <path id="Path_89" data-name="Path 89" d="M115.83,208.785l-.047.154-4.037,12.752,1.466.459,4.085-12.9Z" transform="translate(-91.731 -160.645)" fill="#b0b91d"/>
  <path id="Path_90" data-name="Path 90" d="M124.055,213.021Zm-.262-2.179a2.943,2.943,0,0,0-.6-.066,1.84,1.84,0,0,0-1.856,1.706l-.325,1.56a3.152,3.152,0,0,0-.069.632,3.655,3.655,0,0,0,.238,1.2l1.119,3.386a2.458,2.458,0,0,1,.132.754,2.223,2.223,0,0,1-.052.469L122,222.3c-.115.508-.307.708-.589.709a.677.677,0,0,1-.14-.015c-.344-.084-.453-.245-.466-.6a1.7,1.7,0,0,1,.036-.328l.386-1.861-1.506-.309-.4,1.933a3.23,3.23,0,0,0-.073.66c-.013.99.628,1.613,1.75,1.827a2.831,2.831,0,0,0,.572.061h.023a1.9,1.9,0,0,0,1.9-1.694l.423-2.043a3.335,3.335,0,0,0-.109-1.752l-1.221-3.61a1.756,1.756,0,0,1-.087-.57,2.846,2.846,0,0,1,.062-.566l.281-1.361c.1-.431.212-.629.508-.631a.766.766,0,0,1,.168.019c.35.087.4.211.416.489a1.737,1.737,0,0,1-.04.339l-.36,1.733,1.506.309.374-1.805a3.161,3.161,0,0,0,.07-.63c.013-.908-.564-1.538-1.694-1.754" transform="translate(-94.2 -161.3)" fill="#b0b91d"/>
  <path id="Path_91" data-name="Path 91" d="M130.817,211.934l-.607,13.357,1.537.069.613-13.519-1.535-.069Z" transform="translate(-97.805 -161.627)" fill="#b0b91d"/>
  <path id="Path_92" data-name="Path 92" d="M138.458,220.06l-.023-6.294,1.522,6.11Zm.657-8.672-1.921.235-.311,13.674,1.531-.188.04-3.691,1.835-.226.945,3.568,1.531-.188Z" transform="translate(-100 -161.501)" fill="#b0b91d"/>
  <path id="Path_93" data-name="Path 93" d="M147.549,208.945l.047.154,2.729,8.705-3.944-8.5-1.975.612,4.047,12.917,1.327-.409-2.9-9.249,4.1,8.876,1.941-.6-4.048-12.917Z" transform="translate(-102.474 -160.562)" fill="#b0b91d"/>
  <path id="Path_94" data-name="Path 94" d="M159.1,214.131l-1.727-6.053,3.119,5.475Zm-1.718-8.525-1.784.744L159,219.6l1.423-.591-.962-3.568,1.706-.71,1.876,3.184,1.424-.593Z" transform="translate(-106.156 -159.599)" fill="#b0b91d"/>
  <path id="Path_95" data-name="Path 95" d="M179.545,187.126l.692-.229a2.19,2.19,0,0,1,.676-.134c.384.011.645.156.864.769l1.719,5.139a1.608,1.608,0,0,1,.093.5c0,.482-.331.712-.944.923l-.692.23Zm3.881,8.694c1.609-.52,2.388-1.231,2.38-2.411a5.385,5.385,0,0,0-.332-1.657l-1.561-4.664c-.509-1.563-1.2-2.375-2.423-2.368a5.48,5.48,0,0,0-1.666.329l-2.937.972.053.156,6.414,19.18,2.059-.683-2.863-8.564Z" transform="translate(-113.158 -152.729)" fill="#b0b91d"/>
  <path id="Path_96" data-name="Path 96" d="M198.962,195.372l-2.129.426.589,2.912a2.3,2.3,0,0,1,.052.456c-.015.485-.174.687-.68.806a1.355,1.355,0,0,1-.258.028c-.434-.008-.66-.25-.815-.949L192.8,184.622a2.245,2.245,0,0,1-.052-.458c.016-.485.175-.685.682-.805a1.375,1.375,0,0,1,.256-.027c.433.007.661.249.817.949l.544,2.691,2.129-.424-.556-2.748a2.643,2.643,0,0,0-2.7-2.375,4.419,4.419,0,0,0-.861.091,2.679,2.679,0,0,0-2.478,2.691,3.961,3.961,0,0,0,.084.789l2.943,14.536a2.645,2.645,0,0,0,2.682,2.376h.025a4.474,4.474,0,0,0,.856-.091,2.682,2.682,0,0,0,2.479-2.691,4.036,4.036,0,0,0-.083-.789Z" transform="translate(-117.66 -151.645)" fill="#b0b91d"/>
  <path id="Path_97" data-name="Path 97" d="M209.116,193l1.3-10.242,1.172,10.258Zm-3.215,7.416,2.176.015.789-5.549,2.953.019.715,5.559,2.176.013-2.875-20.4-2.794-.017Z" transform="translate(-122.701 -151.196)" fill="#b0b91d"/>
  <path id="Path_98" data-name="Path 98" d="M221.738,181.08a2.14,2.14,0,1,1-2.134-2.072,2.088,2.088,0,0,1,2.134,2.072m-3.746,0a1.611,1.611,0,0,0,1.625,1.656,1.657,1.657,0,0,0-.013-3.311,1.615,1.615,0,0,0-1.612,1.656m1.282,1.086h-.482V180.1a4.2,4.2,0,0,1,.8-.064,1.3,1.3,0,0,1,.723.152.571.571,0,0,1,.2.455.531.531,0,0,1-.433.48v.026a.608.608,0,0,1,.381.505,1.594,1.594,0,0,0,.153.517H220.1a1.788,1.788,0,0,1-.164-.505c-.04-.227-.165-.328-.433-.328h-.228Zm.013-1.176h.228c.267,0,.483-.088.483-.3,0-.189-.14-.316-.444-.316a1.181,1.181,0,0,0-.266.025Z" transform="translate(-126.503 -150.85)" fill="#b0b91d"/>
</svg>
